<?xml version="1.0" standalone="no"?>
<!DOCTYPE svg PUBLIC "-//W3C//DTD SVG 20010904//EN"
 "http://www.w3.org/TR/2001/REC-SVG-20010904/DTD/svg10.dtd">
<svg version="1.0" xmlns="http://www.w3.org/2000/svg"
 width="417.000000pt" height="417.000000pt" viewBox="0 0 417.000000 417.000000"
 preserveAspectRatio="xMidYMid meet">

<g transform="translate(0.000000,417.000000) scale(0.100000,-0.100000)"
fill="#000000" stroke="none">
<path d="M1903 3345 c-170 -53 -311 -232 -398 -505 -15 -47 -32 -90 -39 -96
-6 -7 -70 -30 -142 -53 -72 -22 -136 -47 -143 -54 -12 -15 -24 -102 -136 -966
-42 -321 -73 -586 -70 -589 8 -8 1427 -274 1432 -268 6 5 104 2238 99 2243 -2
2 -15 -1 -30 -7 -44 -16 -50 -13 -80 55 -38 85 -102 150 -169 170 -28 8 -58
15 -67 15 -9 0 -25 10 -36 21 -42 48 -134 62 -221 34z m137 -84 c0 -5 -9 -13
-20 -16 -38 -12 -125 -109 -162 -180 -20 -39 -46 -104 -57 -145 -12 -40 -25
-78 -30 -83 -14 -14 -186 -65 -189 -57 -6 15 69 196 110 265 84 141 196 225
300 225 26 0 48 -4 48 -9z m231 -107 c26 -29 71 -125 66 -138 -3 -7 -24 -18
-47 -25 -23 -7 -48 -15 -55 -17 -9 -4 -14 18 -18 78 -3 46 -10 95 -16 110 -5
14 -7 28 -4 32 8 7 54 -18 74 -40z m-153 -31 c7 -32 13 -85 14 -117 l3 -60
-120 -38 c-66 -21 -124 -38 -129 -38 -24 0 45 158 95 215 33 38 105 95 119 95
4 0 12 -26 18 -57z m-38 -649 c39 -8 72 -19 75 -23 4 -8 -75 -257 -89 -280 -3
-5 -32 -1 -68 11 -46 14 -84 19 -140 16 -69 -3 -80 -6 -107 -32 -38 -36 -48
-83 -27 -123 8 -17 58 -63 111 -103 151 -115 204 -190 220 -317 19 -138 -57
-310 -166 -378 -147 -93 -414 -59 -538 69 l-32 33 32 104 c17 57 33 105 34
107 1 1 29 -14 61 -33 69 -42 178 -78 208 -69 43 13 76 55 76 96 0 57 -21 89
-107 163 -126 109 -160 162 -170 272 -12 124 32 253 117 346 114 124 326 183
510 141z"/>
<path d="M2540 3038 c0 -13 -72 -1677 -88 -2043 -5 -99 -7 -181 -6 -183 1 -1
168 34 373 78 204 44 373 80 376 80 3 0 5 21 5 48 1 54 -260 1843 -270 1855
-4 4 -55 12 -115 17 l-108 8 -76 76 c-77 77 -91 86 -91 64z"/>
</g>
</svg>
